<svg xmlns="http://www.w3.org/2000/svg" width="15" height="11"><path d="M13.929 9.75a.267.267 0 01-.268.25H1.339a.267.267 0 01-.268-.25v-6a4.415 4.415 0 00.578.516C2.846 5.125 4.051 6 5.215 6.906A3.98 3.98 0 007.492 8h.016a3.979 3.979 0 002.277-1.094 115.965 115.965 0 013.566-2.641 4.424 4.424 0 00.577-.516v6zm0-8.211a3.014 3.014 0 01-1.23 1.93Q11.016 4.7 9.341 5.945A4.182 4.182 0 017.508 7h-.016a4.183 4.183 0 01-1.834-1.055Q3.988 4.7 2.3 3.468A2.765 2.765 0 011.071 1.25.267.267 0 011.339 1h12.322c.318 0 .268.343.268.538zM15 1.25A1.3 1.3 0 0013.661 0H1.339A1.3 1.3 0 000 1.25v8.5A1.3 1.3 0 001.339 11h12.322A1.3 1.3 0 0015 9.75v-8.5z" fill="#555" fill-rule="evenodd"/></svg>