<svg xmlns="http://www.w3.org/2000/svg" width="17" height="14"><path data-name="Twitter Logo Silhouette" d="M15.969 1.075a6.708 6.708 0 01-2.084.774A3.313 3.313 0 0011.492.841a3.236 3.236 0 00-3.28 3.19 3.123 3.123 0 00.085.726 9.4 9.4 0 01-6.76-3.332 3.1 3.1 0 00-.444 1.6 3.166 3.166 0 001.459 2.657 3.345 3.345 0 01-1.485-.4v.04A3.218 3.218 0 003.7 8.45a3.364 3.364 0 01-1.485.05 3.276 3.276 0 003.064 2.22 6.7 6.7 0 01-4.073 1.364 7 7 0 01-.783-.044 9.48 9.48 0 005.028 1.433A9.134 9.134 0 0014.782 4.4l-.011-.413a6.5 6.5 0 001.639-1.651 6.683 6.683 0 01-1.883.5 3.226 3.226 0 001.442-1.761z" fill="#fff" fill-rule="evenodd"/></svg>