<svg xmlns="http://www.w3.org/2000/svg" width="17" height="16"><path data-name="Google Plus Logo" d="M1.585 3.779A3.006 3.006 0 002.907 6.54a3.871 3.871 0 001.985.514c.105 0 .19 0 .249-.008a2.4 2.4 0 00.526 1.719h-.03c-1.15 0-4.9.232-4.9 3.209 0 3.029 3.445 3.183 4.136 3.183h.226a6.576 6.576 0 002.655-.557 3.427 3.427 0 002.082-3.346 4.077 4.077 0 00-1.847-3.082A2 2 0 017.1 7.083a1.436 1.436 0 01.679-.932 3.284 3.284 0 001.197-2.713c0-1.255-.169-2.1-1.207-2.632a3.8 3.8 0 01.68-.119c.563-.074 1.386-.159 1.386-.6V0h-4.1c-.043 0-4.15.147-4.15 3.779zm6.622 7.762c.078 1.212-.995 2.105-2.606 2.219-1.637.115-2.984-.6-3.063-1.806a1.968 1.968 0 01.745-1.6 3.462 3.462 0 012.033-.8c.093-.006.185-.01.276-.01a2.347 2.347 0 012.615 1.997zM7.136 2.95c.4 1.367-.205 2.8-1.173 3.059a1.313 1.313 0 01-.343.046 2.519 2.519 0 01-2.092-2.06 2.878 2.878 0 01.041-1.82 1.591 1.591 0 011.037-1.056 1.3 1.3 0 01.343-.046c1.071.001 1.76.427 2.187 1.877zm6.912 2.977V3.343h-1.695v2.584H9.676v1.636h2.676v2.583h1.695V7.563h2.676V5.927h-2.676z" fill="#fff" fill-rule="evenodd"/></svg>